<svg width="127" height="31" viewBox="0 0 127 31" fill="none" xmlns="http://www.w3.org/2000/svg">
<path d="M19.16 17.666V30.0367H14.713V18.5955C14.713 14.7145 12.732 12.8147 9.70127 12.8147C6.26511 12.8147 4.40629 15.2403 4.40629 18.9195V30.0367H0V9.33913H4.00089L4.32486 12.1277C5.4968 10.1465 7.7203 8.93367 10.8732 8.93367C16.0868 8.93367 19.16 12.3703 19.16 17.666Z" fill="url(#paint0_linear_1697_1311)"/>
<path d="M47.9691 24.4168V13.2589H44.4922V9.33715H46.2713C47.5654 9.33715 47.9691 8.6909 47.9691 7.39664V3.7989H52.3754V9.33715H57.1853V13.2589H52.3754V23.567C52.3754 25.2242 52.8604 26.113 54.8007 26.113H57.1446V30.0347H53.5473C49.95 30.0347 47.9691 28.0128 47.9691 24.415V24.4168Z" fill="url(#paint1_linear_1697_1311)"/>
<path d="M81.6415 26.7434V30.0578H79.1348C77.437 30.0578 75.9004 29.4116 75.5782 27.4303C74.4063 29.2487 71.8588 30.4615 68.6262 30.4615C64.0588 30.4615 61.1484 28.0766 61.1484 24.1141C61.1484 20.5978 63.3719 18.0093 69.0298 18.0093H75.0524V16.9576C75.0524 13.9265 73.2343 12.51 70.5258 12.51C67.8172 12.51 65.9991 13.884 65.8769 16.0263H61.7946C61.915 11.5398 65.5937 8.95125 70.6868 8.95125C75.78 8.95125 79.4977 11.3769 79.4977 16.9966V25.3641C79.4977 26.4955 79.942 26.7381 80.8714 26.7381H81.6397L81.6415 26.7434ZM75.0524 21.0422H69.6353C66.6435 21.0422 65.7141 22.3755 65.7141 23.9123C65.7141 26.0139 67.3711 26.9434 69.6353 26.9434C72.7068 26.9434 75.0524 25.2862 75.0524 21.8903V21.0422Z" fill="url(#paint2_linear_1697_1311)"/>
<path d="M94.0374 12.3304C90.6012 12.3304 88.2573 14.8375 88.2573 19.2426C88.2573 23.892 90.6826 26.1548 93.917 26.1548C96.5034 26.1548 98.403 24.6994 99.2527 21.9497H103.942C102.891 26.9621 99.0916 30.034 93.9984 30.034C87.8537 30.034 83.7324 25.7493 83.7324 19.2408C83.7324 12.7323 87.8555 8.48836 94.0391 8.48836C99.0916 8.48836 102.85 11.3584 103.942 16.3708H99.173C98.4454 13.784 96.4645 12.3287 94.0391 12.3287L94.0374 12.3304Z" fill="url(#paint3_linear_1697_1311)"/>
<path d="M107.963 7.62939e-05H112.369V18.5146L121.423 9.29717H126.919L118.068 18.2313L127.001 30.0355H121.423L114.915 21.3439L112.49 23.8103V30.0355H107.963V7.62939e-05Z" fill="url(#paint4_linear_1697_1311)"/>
<path d="M41.0306 16.1268H37.0492C37.0492 15.006 36.5765 14.0853 35.6329 13.3612C34.6894 12.6388 33.436 12.2776 31.8728 12.2776C30.515 12.2776 29.4014 12.5804 28.5322 13.1841C27.6612 13.7897 27.2275 14.5634 27.2275 15.5071C27.2275 16.3623 27.5957 17.1006 28.334 17.7203C29.0704 18.3399 29.9998 18.9295 31.1204 19.4908C32.241 20.0521 33.4431 20.6275 34.7265 21.2171C36.01 21.8067 37.2103 22.4936 38.3326 23.2744C39.4532 24.057 40.3827 24.9936 41.1191 26.0843C41.8555 27.1767 42.2255 28.4887 42.2255 30.0219H38.2441C38.2441 28.9313 37.8741 28.0159 37.1377 27.2794C36.3995 26.5428 35.4718 25.8718 34.3512 25.2663C33.2306 24.6625 32.0286 24.0871 30.7451 23.54C29.4616 22.9947 28.2596 22.3608 27.139 21.6367C26.0184 20.9143 25.089 20.0662 24.3525 19.0924C23.6143 18.1186 23.2461 16.9093 23.2461 15.4646C23.2461 14.4625 23.4674 13.5329 23.91 12.6778C24.3525 11.8226 24.9633 11.0843 25.7458 10.4646C26.5265 9.8449 27.4559 9.358 28.5322 9.00389C29.6086 8.64979 30.7805 8.47273 32.0498 8.47273C33.3191 8.47273 34.5938 8.66572 35.7002 9.04816C36.8066 9.43236 37.7502 9.96352 38.5309 10.6416C39.3116 11.3198 39.9241 12.1236 40.3667 13.0531C40.8093 13.9826 41.0306 15.0078 41.0306 16.1285V16.1268Z" fill="url(#paint5_linear_1697_1311)"/>
<path d="M124.246 0.00102758V6.33601H126.999V0.00102758H124.246Z" fill="url(#paint6_linear_1697_1311)"/>
<path d="M127 0.000106812H120.666V2.75329H127V0.000106812Z" fill="url(#paint7_linear_1697_1311)"/>
<defs>
<linearGradient id="paint0_linear_1697_1311" x1="126.299" y1="-32.7377" x2="45.6562" y2="3.47431" gradientUnits="userSpaceOnUse">
<stop stop-color="#F7623F"/>
<stop offset="1" stop-color="#3450F5"/>
</linearGradient>
<linearGradient id="paint1_linear_1697_1311" x1="132.476" y1="-18.9791" x2="51.8336" y2="17.233" gradientUnits="userSpaceOnUse">
<stop stop-color="#F7623F"/>
<stop offset="1" stop-color="#3450F5"/>
</linearGradient>
<linearGradient id="paint2_linear_1697_1311" x1="137.183" y1="-8.5027" x2="52.2153" y2="29.6512" gradientUnits="userSpaceOnUse">
<stop stop-color="#F7623F"/>
<stop offset="1" stop-color="#3450F5"/>
</linearGradient>
<linearGradient id="paint3_linear_1697_1311" x1="140.304" y1="-1.54882" x2="59.6616" y2="34.6632" gradientUnits="userSpaceOnUse">
<stop stop-color="#F7623F"/>
<stop offset="1" stop-color="#3450F5"/>
</linearGradient>
<linearGradient id="paint4_linear_1697_1311" x1="142.666" y1="3.70758" x2="62.0234" y2="39.9196" gradientUnits="userSpaceOnUse">
<stop stop-color="#F7623F"/>
<stop offset="1" stop-color="#3450F5"/>
</linearGradient>
<linearGradient id="paint5_linear_1697_1311" x1="130.551" y1="-23.2677" x2="49.9087" y2="12.9443" gradientUnits="userSpaceOnUse">
<stop stop-color="#F7623F"/>
<stop offset="1" stop-color="#3450F5"/>
</linearGradient>
<linearGradient id="paint6_linear_1697_1311" x1="134.73" y1="-0.921424" x2="54.0871" y2="35.2905" gradientUnits="userSpaceOnUse">
<stop stop-color="#F7623F"/>
<stop offset="1" stop-color="#3450F5"/>
</linearGradient>
<linearGradient id="paint7_linear_1697_1311" x1="138.633" y1="-5.27078" x2="57.99" y2="30.9413" gradientUnits="userSpaceOnUse">
<stop stop-color="#F7623F"/>
<stop offset="1" stop-color="#3450F5"/>
</linearGradient>
</defs>
</svg>
